<svg width="184" height="35" viewBox="0 0 184 35" fill="none" xmlns="http://www.w3.org/2000/svg">
<path d="M49.9609 17.0741C50.9542 16.2841 51.4537 15.2153 51.4537 13.8968C51.4537 12.5782 50.9832 11.5385 50.0596 10.7195C49.1419 9.90045 47.9511 9.48804 46.5106 9.48804C45.0701 9.48804 43.9548 9.84236 43.1474 10.5394C42.34 11.2364 41.8056 12.3284 41.55 13.7922C41.5384 13.8735 41.5559 13.9548 41.6081 14.0129C41.6604 14.0768 41.7359 14.1117 41.8172 14.1117H44.1755C44.3033 14.1117 44.4137 14.0245 44.4427 13.9026C44.5996 13.2288 44.8319 12.7467 45.1281 12.4795C45.436 12.2181 45.8891 12.0903 46.4757 12.0903C47.1147 12.0903 47.62 12.2645 48.015 12.6305C48.4042 12.979 48.5959 13.4263 48.5959 13.9897C48.5959 14.7216 48.3345 15.2327 47.8001 15.558C47.591 15.6858 47.0973 15.8368 45.9181 15.8368C45.7671 15.8368 45.6451 15.9588 45.6451 16.1098V18.0383C45.6451 18.1893 45.7671 18.3113 45.9181 18.3113C46.7894 18.3113 47.4342 18.4217 47.8291 18.6424C48.4971 19.0199 48.8224 19.6473 48.8224 20.5534C48.8224 21.2446 48.6017 21.8023 48.1544 22.2437C47.7014 22.6794 47.1437 22.8943 46.4409 22.8943C45.738 22.8943 45.1862 22.72 44.768 22.3773C44.344 22.0346 44.0884 21.5467 43.9722 20.8845C43.949 20.7509 43.8386 20.658 43.705 20.658H41.4165C41.3409 20.658 41.2654 20.6928 41.2132 20.7451C41.1609 20.8032 41.1376 20.8787 41.1434 20.9542C41.248 21.9765 41.5094 22.7955 41.9102 23.388C42.8744 24.7821 44.3672 25.4907 46.3421 25.4907C47.8872 25.4907 49.1825 25.0376 50.1816 24.1431C51.1923 23.2428 51.7035 22.0636 51.7035 20.6463C51.7035 19.0606 51.1168 17.864 49.9551 17.0741H49.9609Z" fill="black"/>
<path d="M62.827 15.256C62.7631 15.256 62.676 15.256 62.5772 15.2676L65.9404 10.9111C65.9869 10.853 66.0043 10.7775 65.9927 10.7078C65.9811 10.6323 65.9404 10.5684 65.8823 10.5278L64.1455 9.29053C64.0236 9.2034 63.8609 9.23244 63.7738 9.3428L58.2847 16.4409C57.2275 17.8059 56.6931 19.1303 56.6931 20.3675C56.6931 21.7558 57.2507 22.9756 58.3602 23.9863C59.4754 24.9912 60.7998 25.4965 62.2868 25.4965C63.7738 25.4965 65.0923 24.9795 66.1669 23.9572C67.2473 22.9291 67.7991 21.6744 67.7991 20.2339C67.7991 18.8747 67.3054 17.6956 66.3354 16.7313C65.3595 15.7555 64.1804 15.256 62.8386 15.256H62.827ZM64.9297 20.3791C64.9297 21.0645 64.6741 21.6396 64.1397 22.1508C63.6112 22.6561 62.9896 22.9001 62.2403 22.9001C61.491 22.9001 60.8405 22.6561 60.3119 22.1508C59.7891 21.6512 59.5335 21.0645 59.5335 20.3501C59.5335 19.6356 59.7891 19.049 60.3119 18.5494C60.8405 18.0441 61.4678 17.8001 62.2287 17.8001C62.9896 17.8001 63.6112 18.0499 64.1455 18.5552C64.6683 19.0548 64.9239 19.6473 64.9239 20.3733L64.9297 20.3791Z" fill="black"/>
<path d="M78.5798 9.49927C77.0173 9.49927 75.6697 10.1789 74.5777 11.5265C73.3753 12.9902 72.7654 14.9652 72.7654 17.4048C72.7654 19.9605 73.3753 22.0052 74.5777 23.4689C75.6871 24.8165 77.0347 25.4961 78.5914 25.4961C80.1481 25.4961 81.4899 24.8165 82.5877 23.4689C83.7901 22.0052 84.4 19.9954 84.4 17.5035C84.4 15.0116 83.7901 12.996 82.5877 11.5323C81.4957 10.1847 80.1481 9.50508 78.5856 9.50508L78.5798 9.49927ZM81.5364 17.4919C81.5364 19.0718 81.2401 20.3904 80.6593 21.4185C80.0958 22.4118 79.422 22.8997 78.5914 22.8997C77.7608 22.8997 77.0812 22.4176 76.5235 21.4243C75.9485 20.373 75.6523 19.0254 75.6523 17.4222C75.6523 15.819 75.9485 14.5876 76.5293 13.5653C77.0928 12.5778 77.7666 12.0957 78.5856 12.0957C79.4046 12.0957 80.09 12.5778 80.6535 13.5653C81.2343 14.5992 81.5305 15.9236 81.5305 17.4977L81.5364 17.4919Z" fill="black"/>
<path d="M102.175 10.5857C100.827 9.84216 99.4039 9.4646 97.9517 9.4646C95.2972 9.4646 93.1073 10.4172 91.4345 12.2992C90.0753 13.8327 89.384 15.6101 89.384 17.5734C89.384 19.7632 90.2089 21.6627 91.8411 23.2135C93.4733 24.747 95.4656 25.5254 97.7716 25.5254C99.2993 25.5254 100.78 25.142 102.175 24.3927C102.262 24.3462 102.32 24.2533 102.32 24.1545V21.4303C102.32 21.3258 102.262 21.2328 102.163 21.1863C102.07 21.1399 101.954 21.1515 101.873 21.2212C101.495 21.5232 101.135 21.7846 100.792 21.9995C100.461 22.2087 100.136 22.3771 99.8163 22.5049C99.2703 22.7489 98.5907 22.8708 97.8007 22.8708C96.2672 22.8708 94.9545 22.3539 93.9031 21.3316C92.8518 20.3092 92.3174 19.043 92.3174 17.556C92.3174 16.069 92.8518 14.762 93.9031 13.7165C94.9487 12.6709 96.2556 12.1424 97.7891 12.1424C99.1831 12.1424 100.554 12.6709 101.873 13.7223C101.954 13.7862 102.064 13.7978 102.163 13.7572C102.256 13.7107 102.32 13.6177 102.32 13.5132V10.847C102.32 10.7483 102.267 10.6554 102.18 10.6089L102.175 10.5857Z" fill="black"/>
<path d="M112.938 15.261C112.072 15.261 111.259 15.5166 110.515 16.0278V9.73126C110.515 9.58023 110.394 9.45825 110.243 9.45825H107.954C107.803 9.45825 107.681 9.58023 107.681 9.73126V25.2286C107.681 25.3796 107.803 25.5016 107.954 25.5016H110.243C110.394 25.5016 110.515 25.3796 110.515 25.2286V20.6688C110.515 19.5652 110.661 18.7869 110.945 18.3628C111.218 17.9678 111.7 17.7762 112.409 17.7762C112.943 17.7762 113.333 17.9156 113.559 18.1886C113.797 18.4732 113.919 18.9669 113.919 19.6581V25.2344C113.919 25.3854 114.041 25.5074 114.192 25.5074H116.481C116.632 25.5074 116.754 25.3854 116.754 25.2344V19.449C116.754 18.0666 116.44 17.0327 115.825 16.3821C115.104 15.6386 114.134 15.261 112.943 15.261H112.938Z" fill="black"/>
<path d="M132.03 15.5229H129.73C129.579 15.5229 129.457 15.6448 129.457 15.7959V16.2838C128.609 15.6042 127.657 15.2615 126.628 15.2615C125.223 15.2615 124.032 15.7668 123.097 16.7601C122.162 17.7534 121.691 19.0022 121.691 20.4834C121.691 21.9646 122.162 23.2599 123.097 24.2764C124.044 25.2697 125.252 25.775 126.692 25.775C127.668 25.775 128.598 25.4497 129.463 24.8166V25.2348C129.463 25.3859 129.585 25.5078 129.736 25.5078H132.036C132.187 25.5078 132.309 25.3859 132.309 25.2348V15.8017C132.309 15.6507 132.187 15.5287 132.036 15.5287L132.03 15.5229ZM127.041 23.0334C126.321 23.0334 125.74 22.7778 125.269 22.2608C124.81 21.7497 124.578 21.0643 124.578 20.2336C124.578 19.4495 124.81 18.8163 125.287 18.2878C125.769 17.7708 126.344 17.521 127.058 17.521C127.819 17.521 128.418 17.7708 128.888 18.2761C129.37 18.8047 129.602 19.4611 129.602 20.2801C129.602 21.0991 129.37 21.7555 128.894 22.2841C128.423 22.7894 127.813 23.0334 127.035 23.0334H127.041Z" fill="black"/>
<path d="M142.945 15.2614C142.062 15.2614 141.249 15.5402 140.511 16.0804V15.79C140.511 15.639 140.389 15.517 140.238 15.517H137.938C137.787 15.517 137.665 15.639 137.665 15.79V25.2232C137.665 25.3742 137.787 25.4962 137.938 25.4962H140.238C140.389 25.4962 140.511 25.3742 140.511 25.2232V20.675C140.511 19.5598 140.65 18.7814 140.935 18.3574C141.202 17.9566 141.655 17.7649 142.323 17.7649C142.927 17.7649 143.34 17.9101 143.549 18.2006C143.712 18.4097 143.897 18.886 143.897 19.9606V25.2232C143.897 25.3742 144.019 25.4962 144.17 25.4962H146.471C146.622 25.4962 146.744 25.3742 146.744 25.2232V19.4378C146.744 18.0437 146.436 17.0098 145.837 16.3767C145.14 15.6332 144.17 15.2556 142.945 15.2556V15.2614Z" fill="black"/>
<path d="M157.385 15.2614C156.502 15.2614 155.689 15.5402 154.951 16.0804V15.79C154.951 15.639 154.829 15.517 154.678 15.517H152.378C152.227 15.517 152.105 15.639 152.105 15.79V25.2232C152.105 25.3742 152.227 25.4962 152.378 25.4962H154.678C154.829 25.4962 154.951 25.3742 154.951 25.2232V20.675C154.951 19.5598 155.091 18.7814 155.375 18.3574C155.643 17.9566 156.096 17.7649 156.764 17.7649C157.368 17.7649 157.78 17.9101 157.989 18.2006C158.152 18.4097 158.338 18.886 158.338 19.9606V25.2232C158.338 25.3742 158.46 25.4962 158.611 25.4962H160.911C161.062 25.4962 161.184 25.3742 161.184 25.2232V19.4378C161.184 18.0437 160.876 17.0098 160.278 16.3767C159.581 15.6332 158.611 15.2556 157.385 15.2556V15.2614Z" fill="black"/>
<path d="M175.798 22.7021L173.864 21.6739C173.742 21.61 173.585 21.6449 173.51 21.7611C173.167 22.2722 172.964 22.4523 172.627 22.6904C172.29 22.9286 171.878 23.0273 171.366 23.0273C170.698 23.0273 170.176 22.8298 169.757 22.429C169.391 22.0747 169.171 21.6158 169.078 21.0466H175.868C176.019 21.0466 176.135 20.9304 176.141 20.7794L176.153 20.2624C176.153 18.6418 175.705 17.3465 174.817 16.423C173.922 15.4878 172.691 15.0115 171.163 15.0115C169.635 15.0115 168.41 15.4994 167.486 16.4636C166.574 17.4337 166.11 18.7174 166.11 20.2741C166.11 21.8308 166.586 23.1261 167.533 24.0903C168.474 25.0429 169.74 25.525 171.285 25.525C171.819 25.525 172.319 25.4728 172.784 25.3624C173.248 25.252 173.69 25.0778 174.091 24.8454C174.491 24.6131 174.869 24.311 175.217 23.9451C175.56 23.585 175.595 23.585 175.903 23.0854C175.944 23.0215 175.955 22.946 175.932 22.8705C175.915 22.795 175.862 22.7369 175.798 22.7021ZM169.316 18.7232C169.362 18.6128 169.421 18.5141 169.484 18.4211C169.606 18.2352 169.763 18.0726 169.937 17.939C170.112 17.8054 170.309 17.7009 170.524 17.6312C170.739 17.5614 170.971 17.5266 171.221 17.5266C172.185 17.5266 172.819 17.9216 173.15 18.7232H169.316Z" fill="black"/>
<path d="M183.727 9.45825H181.439C181.288 9.45825 181.166 9.58048 181.166 9.73126V25.2286C181.166 25.3794 181.288 25.5016 181.439 25.5016H183.727C183.878 25.5016 184 25.3794 184 25.2286V9.73126C184 9.58048 183.878 9.45825 183.727 9.45825Z" fill="black"/>
<path d="M26.2563 18.7002C28.3415 16.6149 28.3415 13.2169 26.2563 11.1258C24.4149 9.28446 21.5513 9.06954 19.4718 10.4752V7.50703C19.4718 6.85646 18.9432 6.32788 18.2927 6.32788C17.6421 6.32788 17.1135 6.85646 17.1135 7.50703V14.9769C17.1135 15.0175 17.1135 15.064 17.1193 15.1047C17.1658 16.4116 17.6886 17.7011 18.6818 18.6944C20.7671 20.7797 24.1652 20.7855 26.2563 18.6944V18.7002ZM20.3489 12.7928C21.5164 11.6253 23.4217 11.6253 24.5892 12.7928C25.7567 13.9604 25.7567 15.8656 24.5892 17.0331C23.4217 18.2006 21.5164 18.2006 20.3489 17.0331C19.1814 15.8656 19.1814 13.9604 20.3489 12.7928Z" fill="black"/>
<path d="M12.3269 25.0548C11.868 24.5959 11.1187 24.5959 10.6598 25.0548C10.201 25.5137 10.201 26.263 10.6598 26.7218C12.7451 28.8071 16.1431 28.8071 18.2342 26.7218C20.3195 24.6366 20.3195 21.2385 18.2342 19.1474C16.7298 17.643 14.5516 17.2248 12.6696 17.8812V14.3089C12.6696 13.8326 12.385 13.4027 11.9435 13.2227C11.5021 13.0426 10.9967 13.1414 10.6598 13.4783L6.16398 17.9741C5.7051 18.433 5.7051 19.1823 6.16398 19.6412C6.62286 20.1 7.37217 20.1 7.83105 19.6412L10.3171 17.1551V19.9839C10.3171 20.6344 10.8457 21.163 11.4963 21.163C11.8099 21.163 12.1062 21.041 12.3269 20.8203C13.4944 19.6528 15.3996 19.6528 16.5672 20.8203C17.7347 21.9878 17.7347 23.8931 16.5672 25.0606C15.3996 26.2281 13.4944 26.2281 12.3269 25.0606V25.0548Z" fill="black"/>
<path d="M35.608 8.20949C34.6321 6.26361 33.36 4.48618 31.815 2.92366C31.4781 2.58096 30.9727 2.48221 30.5313 2.66228C30.0898 2.84234 29.7994 3.27218 29.7994 3.75429V7.76803C29.3695 7.2046 28.899 6.67021 28.3879 6.15905C26.7441 4.51522 24.8098 3.27218 22.6432 2.46479C22.0333 2.23825 21.3537 2.54611 21.1271 3.15601C20.9006 3.76591 21.2085 4.44552 21.8184 4.67205C23.6655 5.35747 25.3151 6.42044 26.715 7.82031C28.1207 9.22599 29.1778 10.8756 29.8633 12.717C30.0608 13.2513 30.6126 13.565 31.176 13.4663C31.7394 13.3675 32.146 12.8796 32.146 12.3045V6.99549C32.6456 7.71575 33.0987 8.47087 33.4936 9.26084C33.7841 9.8417 34.4927 10.0799 35.0736 9.78362C35.1897 9.72553 35.2943 9.65002 35.3814 9.56289C35.7299 9.21437 35.8345 8.66836 35.6022 8.20368L35.608 8.20949Z" fill="black"/>
<path d="M31.6059 14.2857C30.9611 14.3728 30.5138 14.9711 30.601 15.6158C31.1586 19.6354 29.9039 23.6782 27.2262 26.6638C27.1681 26.7219 27.11 26.7799 27.0519 26.8438C21.9055 32.362 13.2217 32.6699 7.70349 27.5176C2.17952 22.3712 1.87747 13.6874 7.02389 8.16921C10.0618 4.91059 14.5112 3.33065 18.9315 3.94636C19.5763 4.03349 20.1687 3.58623 20.2617 2.94147C20.3488 2.29672 19.9015 1.70424 19.2568 1.6113C14.0813 0.896848 8.86521 2.74398 5.30454 6.56023C-0.730588 13.031 -0.376263 23.2019 6.09451 29.237C12.2574 34.9817 21.7777 34.9352 27.8826 29.3299H27.8884C27.9232 29.3009 27.9523 29.2718 27.9871 29.2428C31.8034 25.6821 33.6563 20.466 32.936 15.2905C32.8489 14.6458 32.2506 14.1985 31.6059 14.2857Z" fill="black"/>
</svg>
